# xmcd
#
# Track frame offsets:
#	182
#	25137
#	41020
#	65387
#	80445
#	95112
#	110815
#	124320
#	144002
#	158747
#	180445
#
# Disc length: 2614 seconds
#
# Revision: 1
# Processed by: cddbd v1.5.2PL0 Copyright (c) Steve Scherf et al.
# Submitted via: audiograbber 1.83.01
#
DISCID=8e0a340b
DTITLE=Jeanne Carroll - For The Sake Of Love
DYEAR=1994
DGENRE=Blues
TTITLE0=I had a good friend
TTITLE1=Sweet jazz in time
TTITLE2=Blues breakdown
TTITLE3=Be good to you
TTITLE4=Tears of gold
TTITLE5=This morning
TTITLE6=Touch of jazz (Real cool)
TTITLE7=Boogie bound
TTITLE8=For the sake of love
TTITLE9=It's there
TTITLE10=Interview
EXTD=
EXTT0=
EXTT1=
EXTT2=
EXTT3=
EXTT4=
EXTT5=
EXTT6=
EXTT7=
EXTT8=
EXTT9=
EXTT10=
PLAYORDER=
